<mxfile host="app.diagrams.net" agent="Mozilla/5.0 (X11; Linux x86_64; rv:133.0) Gecko/20100101 Firefox/133.0" version="26.0.5">
  <diagram name="Page-1" id="YsuCL7h94WzehlAVwKo4">
    <mxGraphModel dx="659" dy="946" grid="1" gridSize="10" guides="1" tooltips="1" connect="1" arrows="1" fold="1" page="1" pageScale="1" pageWidth="850" pageHeight="1100" math="0" shadow="0">
      <root>
        <mxCell id="0" />
        <mxCell id="1" parent="0" />
        <mxCell id="87M5MBBCxFnqLgaria4e-21" style="edgeStyle=orthogonalEdgeStyle;orthogonalLoop=1;jettySize=auto;html=1;exitX=0.75;exitY=1;exitDx=0;exitDy=0;entryX=0.5;entryY=0;entryDx=0;entryDy=0;" edge="1" parent="1" source="87M5MBBCxFnqLgaria4e-1" target="87M5MBBCxFnqLgaria4e-10">
          <mxGeometry relative="1" as="geometry" />
        </mxCell>
        <mxCell id="87M5MBBCxFnqLgaria4e-89" value="0,N" style="edgeLabel;html=1;align=center;verticalAlign=middle;resizable=0;points=[];" vertex="1" connectable="0" parent="87M5MBBCxFnqLgaria4e-21">
          <mxGeometry x="-0.7285" y="1" relative="1" as="geometry">
            <mxPoint as="offset" />
          </mxGeometry>
        </mxCell>
        <mxCell id="87M5MBBCxFnqLgaria4e-1" value="Volo" style="whiteSpace=wrap;html=1;align=center;rounded=0;" vertex="1" parent="1">
          <mxGeometry x="200" y="180" width="100" height="40" as="geometry" />
        </mxCell>
        <mxCell id="87M5MBBCxFnqLgaria4e-29" value="" style="edgeStyle=orthogonalEdgeStyle;orthogonalLoop=1;jettySize=auto;html=1;" edge="1" parent="1" source="87M5MBBCxFnqLgaria4e-2" target="87M5MBBCxFnqLgaria4e-28">
          <mxGeometry relative="1" as="geometry" />
        </mxCell>
        <mxCell id="87M5MBBCxFnqLgaria4e-47" style="edgeStyle=orthogonalEdgeStyle;orthogonalLoop=1;jettySize=auto;html=1;exitX=0.5;exitY=1;exitDx=0;exitDy=0;entryX=0;entryY=0;entryDx=0;entryDy=0;" edge="1" parent="1" source="87M5MBBCxFnqLgaria4e-2" target="87M5MBBCxFnqLgaria4e-45">
          <mxGeometry relative="1" as="geometry" />
        </mxCell>
        <mxCell id="87M5MBBCxFnqLgaria4e-2" value="Pacco" style="whiteSpace=wrap;html=1;rounded=0;" vertex="1" parent="1">
          <mxGeometry x="60" y="370" width="120" height="40" as="geometry" />
        </mxCell>
        <mxCell id="87M5MBBCxFnqLgaria4e-3" value="Compagnia" style="whiteSpace=wrap;html=1;rounded=0;" vertex="1" parent="1">
          <mxGeometry x="210" y="550" width="120" height="40" as="geometry" />
        </mxCell>
        <mxCell id="87M5MBBCxFnqLgaria4e-44" value="" style="edgeStyle=orthogonalEdgeStyle;orthogonalLoop=1;jettySize=auto;html=1;" edge="1" parent="1" source="87M5MBBCxFnqLgaria4e-4" target="87M5MBBCxFnqLgaria4e-43">
          <mxGeometry relative="1" as="geometry" />
        </mxCell>
        <mxCell id="87M5MBBCxFnqLgaria4e-48" style="edgeStyle=orthogonalEdgeStyle;orthogonalLoop=1;jettySize=auto;html=1;exitX=0;exitY=1;exitDx=0;exitDy=0;entryX=1;entryY=0.5;entryDx=0;entryDy=0;" edge="1" parent="1" source="87M5MBBCxFnqLgaria4e-4" target="87M5MBBCxFnqLgaria4e-45">
          <mxGeometry relative="1" as="geometry" />
        </mxCell>
        <mxCell id="87M5MBBCxFnqLgaria4e-95" value="" style="edgeStyle=orthogonalEdgeStyle;orthogonalLoop=1;jettySize=auto;html=1;" edge="1" parent="1" source="87M5MBBCxFnqLgaria4e-4" target="87M5MBBCxFnqLgaria4e-12">
          <mxGeometry relative="1" as="geometry" />
        </mxCell>
        <mxCell id="87M5MBBCxFnqLgaria4e-4" value="Bagaglio" style="whiteSpace=wrap;html=1;rounded=0;" vertex="1" parent="1">
          <mxGeometry x="410" y="560" width="120" height="40" as="geometry" />
        </mxCell>
        <mxCell id="87M5MBBCxFnqLgaria4e-16" style="edgeStyle=orthogonalEdgeStyle;orthogonalLoop=1;jettySize=auto;html=1;exitX=0.75;exitY=1;exitDx=0;exitDy=0;entryX=0.5;entryY=0;entryDx=0;entryDy=0;" edge="1" parent="1" source="87M5MBBCxFnqLgaria4e-5" target="87M5MBBCxFnqLgaria4e-12">
          <mxGeometry relative="1" as="geometry" />
        </mxCell>
        <mxCell id="87M5MBBCxFnqLgaria4e-96" value="1,N" style="edgeLabel;html=1;align=center;verticalAlign=middle;resizable=0;points=[];" vertex="1" connectable="0" parent="87M5MBBCxFnqLgaria4e-16">
          <mxGeometry x="-0.7636" y="-1" relative="1" as="geometry">
            <mxPoint as="offset" />
          </mxGeometry>
        </mxCell>
        <mxCell id="87M5MBBCxFnqLgaria4e-17" style="edgeStyle=orthogonalEdgeStyle;orthogonalLoop=1;jettySize=auto;html=1;exitX=0.25;exitY=1;exitDx=0;exitDy=0;entryX=0.5;entryY=0;entryDx=0;entryDy=0;" edge="1" parent="1" source="87M5MBBCxFnqLgaria4e-5" target="87M5MBBCxFnqLgaria4e-11">
          <mxGeometry relative="1" as="geometry" />
        </mxCell>
        <mxCell id="87M5MBBCxFnqLgaria4e-92" value="1,1" style="edgeLabel;html=1;align=center;verticalAlign=middle;resizable=0;points=[];" vertex="1" connectable="0" parent="87M5MBBCxFnqLgaria4e-17">
          <mxGeometry x="-0.7948" y="1" relative="1" as="geometry">
            <mxPoint as="offset" />
          </mxGeometry>
        </mxCell>
        <mxCell id="87M5MBBCxFnqLgaria4e-24" style="edgeStyle=orthogonalEdgeStyle;orthogonalLoop=1;jettySize=auto;html=1;exitX=1;exitY=0.5;exitDx=0;exitDy=0;entryX=0.5;entryY=0;entryDx=0;entryDy=0;" edge="1" parent="1" source="87M5MBBCxFnqLgaria4e-5" target="87M5MBBCxFnqLgaria4e-13">
          <mxGeometry relative="1" as="geometry" />
        </mxCell>
        <mxCell id="87M5MBBCxFnqLgaria4e-97" value="1,1" style="edgeLabel;html=1;align=center;verticalAlign=middle;resizable=0;points=[];" vertex="1" connectable="0" parent="87M5MBBCxFnqLgaria4e-24">
          <mxGeometry x="-0.9017" relative="1" as="geometry">
            <mxPoint as="offset" />
          </mxGeometry>
        </mxCell>
        <mxCell id="87M5MBBCxFnqLgaria4e-26" style="edgeStyle=orthogonalEdgeStyle;orthogonalLoop=1;jettySize=auto;html=1;exitX=1;exitY=0.25;exitDx=0;exitDy=0;entryX=0.5;entryY=1;entryDx=0;entryDy=0;" edge="1" parent="1" source="87M5MBBCxFnqLgaria4e-5" target="87M5MBBCxFnqLgaria4e-14">
          <mxGeometry relative="1" as="geometry" />
        </mxCell>
        <mxCell id="87M5MBBCxFnqLgaria4e-99" value="&lt;div&gt;1,1&lt;/div&gt;" style="edgeLabel;html=1;align=center;verticalAlign=middle;resizable=0;points=[];" vertex="1" connectable="0" parent="87M5MBBCxFnqLgaria4e-26">
          <mxGeometry x="-0.9232" y="1" relative="1" as="geometry">
            <mxPoint as="offset" />
          </mxGeometry>
        </mxCell>
        <mxCell id="87M5MBBCxFnqLgaria4e-81" value="" style="edgeStyle=orthogonalEdgeStyle;orthogonalLoop=1;jettySize=auto;html=1;" edge="1" parent="1" source="87M5MBBCxFnqLgaria4e-5" target="87M5MBBCxFnqLgaria4e-80">
          <mxGeometry relative="1" as="geometry" />
        </mxCell>
        <mxCell id="87M5MBBCxFnqLgaria4e-5" value="Passeggero" style="whiteSpace=wrap;html=1;rounded=0;" vertex="1" parent="1">
          <mxGeometry x="310" y="370" width="120" height="40" as="geometry" />
        </mxCell>
        <mxCell id="87M5MBBCxFnqLgaria4e-57" value="" style="edgeStyle=orthogonalEdgeStyle;orthogonalLoop=1;jettySize=auto;html=1;" edge="1" parent="1" source="87M5MBBCxFnqLgaria4e-6" target="87M5MBBCxFnqLgaria4e-56">
          <mxGeometry relative="1" as="geometry" />
        </mxCell>
        <mxCell id="87M5MBBCxFnqLgaria4e-59" value="" style="edgeStyle=orthogonalEdgeStyle;orthogonalLoop=1;jettySize=auto;html=1;" edge="1" parent="1" source="87M5MBBCxFnqLgaria4e-6" target="87M5MBBCxFnqLgaria4e-58">
          <mxGeometry relative="1" as="geometry" />
        </mxCell>
        <mxCell id="87M5MBBCxFnqLgaria4e-61" style="edgeStyle=orthogonalEdgeStyle;orthogonalLoop=1;jettySize=auto;html=1;exitX=0.75;exitY=0;exitDx=0;exitDy=0;" edge="1" parent="1" source="87M5MBBCxFnqLgaria4e-6">
          <mxGeometry relative="1" as="geometry">
            <mxPoint x="720" y="110" as="targetPoint" />
          </mxGeometry>
        </mxCell>
        <mxCell id="87M5MBBCxFnqLgaria4e-6" value="Documento" style="whiteSpace=wrap;html=1;rounded=0;" vertex="1" parent="1">
          <mxGeometry x="630" y="140" width="120" height="40" as="geometry" />
        </mxCell>
        <mxCell id="87M5MBBCxFnqLgaria4e-64" value="" style="edgeStyle=orthogonalEdgeStyle;orthogonalLoop=1;jettySize=auto;html=1;" edge="1" parent="1" source="87M5MBBCxFnqLgaria4e-7" target="87M5MBBCxFnqLgaria4e-63">
          <mxGeometry relative="1" as="geometry" />
        </mxCell>
        <mxCell id="87M5MBBCxFnqLgaria4e-7" value="Persona" style="whiteSpace=wrap;html=1;rounded=0;" vertex="1" parent="1">
          <mxGeometry x="620" y="560" width="120" height="40" as="geometry" />
        </mxCell>
        <mxCell id="87M5MBBCxFnqLgaria4e-19" style="edgeStyle=orthogonalEdgeStyle;orthogonalLoop=1;jettySize=auto;html=1;exitX=0.5;exitY=1;exitDx=0;exitDy=0;entryX=0.5;entryY=0;entryDx=0;entryDy=0;" edge="1" parent="1" source="87M5MBBCxFnqLgaria4e-9" target="87M5MBBCxFnqLgaria4e-2">
          <mxGeometry relative="1" as="geometry" />
        </mxCell>
        <mxCell id="87M5MBBCxFnqLgaria4e-91" value="1,1" style="edgeLabel;html=1;align=center;verticalAlign=middle;resizable=0;points=[];" vertex="1" connectable="0" parent="87M5MBBCxFnqLgaria4e-19">
          <mxGeometry x="0.7937" y="-1" relative="1" as="geometry">
            <mxPoint as="offset" />
          </mxGeometry>
        </mxCell>
        <mxCell id="87M5MBBCxFnqLgaria4e-20" style="edgeStyle=orthogonalEdgeStyle;orthogonalLoop=1;jettySize=auto;html=1;exitX=0.5;exitY=0;exitDx=0;exitDy=0;entryX=0.25;entryY=1;entryDx=0;entryDy=0;" edge="1" parent="1" source="87M5MBBCxFnqLgaria4e-9" target="87M5MBBCxFnqLgaria4e-1">
          <mxGeometry relative="1" as="geometry" />
        </mxCell>
        <mxCell id="87M5MBBCxFnqLgaria4e-90" value="0,N" style="edgeLabel;html=1;align=center;verticalAlign=middle;resizable=0;points=[];" vertex="1" connectable="0" parent="87M5MBBCxFnqLgaria4e-20">
          <mxGeometry x="0.8088" relative="1" as="geometry">
            <mxPoint as="offset" />
          </mxGeometry>
        </mxCell>
        <mxCell id="87M5MBBCxFnqLgaria4e-9" value="Trasporta" style="shape=rhombus;perimeter=rhombusPerimeter;whiteSpace=wrap;html=1;align=center;" vertex="1" parent="1">
          <mxGeometry x="100" y="260" width="100" height="50" as="geometry" />
        </mxCell>
        <mxCell id="87M5MBBCxFnqLgaria4e-22" style="edgeStyle=orthogonalEdgeStyle;orthogonalLoop=1;jettySize=auto;html=1;exitX=0.5;exitY=1;exitDx=0;exitDy=0;entryX=0.164;entryY=-0.061;entryDx=0;entryDy=0;entryPerimeter=0;" edge="1" parent="1" source="87M5MBBCxFnqLgaria4e-10" target="87M5MBBCxFnqLgaria4e-5">
          <mxGeometry relative="1" as="geometry" />
        </mxCell>
        <mxCell id="87M5MBBCxFnqLgaria4e-88" value="1,1" style="edgeLabel;html=1;align=center;verticalAlign=middle;resizable=0;points=[];" vertex="1" connectable="0" parent="87M5MBBCxFnqLgaria4e-22">
          <mxGeometry x="0.7896" y="-1" relative="1" as="geometry">
            <mxPoint as="offset" />
          </mxGeometry>
        </mxCell>
        <mxCell id="87M5MBBCxFnqLgaria4e-10" value="Trasporta" style="shape=rhombus;perimeter=rhombusPerimeter;whiteSpace=wrap;html=1;align=center;" vertex="1" parent="1">
          <mxGeometry x="245" y="260" width="100" height="50" as="geometry" />
        </mxCell>
        <mxCell id="87M5MBBCxFnqLgaria4e-18" style="edgeStyle=orthogonalEdgeStyle;orthogonalLoop=1;jettySize=auto;html=1;exitX=0.5;exitY=1;exitDx=0;exitDy=0;entryX=0.5;entryY=0;entryDx=0;entryDy=0;" edge="1" parent="1" source="87M5MBBCxFnqLgaria4e-11" target="87M5MBBCxFnqLgaria4e-3">
          <mxGeometry relative="1" as="geometry" />
        </mxCell>
        <mxCell id="87M5MBBCxFnqLgaria4e-93" value="0,N" style="edgeLabel;html=1;align=center;verticalAlign=middle;resizable=0;points=[];" vertex="1" connectable="0" parent="87M5MBBCxFnqLgaria4e-18">
          <mxGeometry x="0.5371" y="1" relative="1" as="geometry">
            <mxPoint as="offset" />
          </mxGeometry>
        </mxCell>
        <mxCell id="87M5MBBCxFnqLgaria4e-11" value="Cliente" style="shape=rhombus;perimeter=rhombusPerimeter;whiteSpace=wrap;html=1;align=center;" vertex="1" parent="1">
          <mxGeometry x="230" y="460" width="100" height="50" as="geometry" />
        </mxCell>
        <mxCell id="87M5MBBCxFnqLgaria4e-23" style="edgeStyle=orthogonalEdgeStyle;orthogonalLoop=1;jettySize=auto;html=1;exitX=0.5;exitY=1;exitDx=0;exitDy=0;entryX=0.5;entryY=0;entryDx=0;entryDy=0;" edge="1" parent="1" source="87M5MBBCxFnqLgaria4e-12" target="87M5MBBCxFnqLgaria4e-4">
          <mxGeometry relative="1" as="geometry" />
        </mxCell>
        <mxCell id="87M5MBBCxFnqLgaria4e-94" value="1,1" style="edgeLabel;html=1;align=center;verticalAlign=middle;resizable=0;points=[];" vertex="1" connectable="0" parent="87M5MBBCxFnqLgaria4e-23">
          <mxGeometry x="0.7381" y="2" relative="1" as="geometry">
            <mxPoint as="offset" />
          </mxGeometry>
        </mxCell>
        <mxCell id="87M5MBBCxFnqLgaria4e-12" value="Trasporta" style="shape=rhombus;perimeter=rhombusPerimeter;whiteSpace=wrap;html=1;align=center;" vertex="1" parent="1">
          <mxGeometry x="410" y="460" width="100" height="50" as="geometry" />
        </mxCell>
        <mxCell id="87M5MBBCxFnqLgaria4e-25" style="edgeStyle=orthogonalEdgeStyle;orthogonalLoop=1;jettySize=auto;html=1;exitX=0.5;exitY=1;exitDx=0;exitDy=0;entryX=0.25;entryY=0;entryDx=0;entryDy=0;" edge="1" parent="1" source="87M5MBBCxFnqLgaria4e-13" target="87M5MBBCxFnqLgaria4e-7">
          <mxGeometry relative="1" as="geometry" />
        </mxCell>
        <mxCell id="87M5MBBCxFnqLgaria4e-98" value="1,N" style="edgeLabel;html=1;align=center;verticalAlign=middle;resizable=0;points=[];" vertex="1" connectable="0" parent="87M5MBBCxFnqLgaria4e-25">
          <mxGeometry x="0.7619" relative="1" as="geometry">
            <mxPoint as="offset" />
          </mxGeometry>
        </mxCell>
        <mxCell id="87M5MBBCxFnqLgaria4e-13" value="è una" style="shape=rhombus;perimeter=rhombusPerimeter;whiteSpace=wrap;html=1;align=center;" vertex="1" parent="1">
          <mxGeometry x="560" y="460" width="100" height="50" as="geometry" />
        </mxCell>
        <mxCell id="87M5MBBCxFnqLgaria4e-14" value="Identifica" style="shape=rhombus;perimeter=rhombusPerimeter;whiteSpace=wrap;html=1;align=center;" vertex="1" parent="1">
          <mxGeometry x="630" y="290" width="100" height="50" as="geometry" />
        </mxCell>
        <mxCell id="87M5MBBCxFnqLgaria4e-27" style="edgeStyle=orthogonalEdgeStyle;orthogonalLoop=1;jettySize=auto;html=1;exitX=0.5;exitY=0;exitDx=0;exitDy=0;entryX=0.417;entryY=0.95;entryDx=0;entryDy=0;entryPerimeter=0;" edge="1" parent="1" source="87M5MBBCxFnqLgaria4e-14" target="87M5MBBCxFnqLgaria4e-6">
          <mxGeometry relative="1" as="geometry" />
        </mxCell>
        <mxCell id="87M5MBBCxFnqLgaria4e-100" value="1,N" style="edgeLabel;html=1;align=center;verticalAlign=middle;resizable=0;points=[];" vertex="1" connectable="0" parent="87M5MBBCxFnqLgaria4e-27">
          <mxGeometry x="0.7781" y="-2" relative="1" as="geometry">
            <mxPoint as="offset" />
          </mxGeometry>
        </mxCell>
        <mxCell id="87M5MBBCxFnqLgaria4e-28" value="" style="shape=waypoint;sketch=0;size=6;pointerEvents=1;points=[];fillColor=default;resizable=0;rotatable=0;perimeter=centerPerimeter;snapToPoint=1;rounded=0;" vertex="1" parent="1">
          <mxGeometry x="30" y="430" width="20" height="20" as="geometry" />
        </mxCell>
        <mxCell id="87M5MBBCxFnqLgaria4e-30" value="id" style="text;html=1;align=center;verticalAlign=middle;resizable=0;points=[];autosize=1;strokeColor=none;fillColor=none;" vertex="1" parent="1">
          <mxGeometry x="20" y="450" width="30" height="30" as="geometry" />
        </mxCell>
        <mxCell id="87M5MBBCxFnqLgaria4e-32" value="peso" style="text;html=1;align=center;verticalAlign=middle;resizable=0;points=[];autosize=1;strokeColor=none;fillColor=none;" vertex="1" parent="1">
          <mxGeometry x="40" y="640" width="50" height="30" as="geometry" />
        </mxCell>
        <mxCell id="87M5MBBCxFnqLgaria4e-33" value="altezza" style="text;html=1;align=center;verticalAlign=middle;resizable=0;points=[];autosize=1;strokeColor=none;fillColor=none;" vertex="1" parent="1">
          <mxGeometry x="60" y="670" width="60" height="30" as="geometry" />
        </mxCell>
        <mxCell id="87M5MBBCxFnqLgaria4e-34" value="largezza" style="text;html=1;align=center;verticalAlign=middle;resizable=0;points=[];autosize=1;strokeColor=none;fillColor=none;" vertex="1" parent="1">
          <mxGeometry x="90" y="710" width="70" height="30" as="geometry" />
        </mxCell>
        <mxCell id="87M5MBBCxFnqLgaria4e-35" value="spessore" style="text;html=1;align=center;verticalAlign=middle;resizable=0;points=[];autosize=1;strokeColor=none;fillColor=none;" vertex="1" parent="1">
          <mxGeometry x="215" y="680" width="70" height="30" as="geometry" />
        </mxCell>
        <mxCell id="87M5MBBCxFnqLgaria4e-36" value="contenuto" style="text;html=1;align=center;verticalAlign=middle;resizable=0;points=[];autosize=1;strokeColor=none;fillColor=none;" vertex="1" parent="1">
          <mxGeometry x="180" y="720" width="80" height="30" as="geometry" />
        </mxCell>
        <mxCell id="87M5MBBCxFnqLgaria4e-37" value="stato" style="text;html=1;align=center;verticalAlign=middle;resizable=0;points=[];autosize=1;strokeColor=none;fillColor=none;" vertex="1" parent="1">
          <mxGeometry x="130" y="750" width="50" height="30" as="geometry" />
        </mxCell>
        <mxCell id="87M5MBBCxFnqLgaria4e-43" value="" style="shape=waypoint;sketch=0;size=6;pointerEvents=1;points=[];fillColor=default;resizable=0;rotatable=0;perimeter=centerPerimeter;snapToPoint=1;rounded=0;" vertex="1" parent="1">
          <mxGeometry x="460" y="630" width="20" height="20" as="geometry" />
        </mxCell>
        <mxCell id="87M5MBBCxFnqLgaria4e-45" value="Contenitore" style="ellipse;whiteSpace=wrap;html=1;align=center;" vertex="1" parent="1">
          <mxGeometry x="145" y="620" width="100" height="40" as="geometry" />
        </mxCell>
        <mxCell id="87M5MBBCxFnqLgaria4e-46" style="edgeStyle=orthogonalEdgeStyle;orthogonalLoop=1;jettySize=auto;html=1;exitX=0;exitY=0.5;exitDx=0;exitDy=0;entryX=0.987;entryY=0.494;entryDx=0;entryDy=0;entryPerimeter=0;" edge="1" parent="1" source="87M5MBBCxFnqLgaria4e-45" target="87M5MBBCxFnqLgaria4e-32">
          <mxGeometry relative="1" as="geometry" />
        </mxCell>
        <mxCell id="87M5MBBCxFnqLgaria4e-49" style="edgeStyle=orthogonalEdgeStyle;orthogonalLoop=1;jettySize=auto;html=1;exitX=1;exitY=1;exitDx=0;exitDy=0;entryX=0.447;entryY=0.1;entryDx=0;entryDy=0;entryPerimeter=0;" edge="1" parent="1" source="87M5MBBCxFnqLgaria4e-45" target="87M5MBBCxFnqLgaria4e-35">
          <mxGeometry relative="1" as="geometry" />
        </mxCell>
        <mxCell id="87M5MBBCxFnqLgaria4e-50" style="edgeStyle=orthogonalEdgeStyle;orthogonalLoop=1;jettySize=auto;html=1;exitX=0.5;exitY=1;exitDx=0;exitDy=0;entryX=0.407;entryY=-0.014;entryDx=0;entryDy=0;entryPerimeter=0;" edge="1" parent="1" source="87M5MBBCxFnqLgaria4e-45" target="87M5MBBCxFnqLgaria4e-36">
          <mxGeometry relative="1" as="geometry" />
        </mxCell>
        <mxCell id="87M5MBBCxFnqLgaria4e-51" style="edgeStyle=orthogonalEdgeStyle;orthogonalLoop=1;jettySize=auto;html=1;exitX=0;exitY=1;exitDx=0;exitDy=0;entryX=0.84;entryY=-0.024;entryDx=0;entryDy=0;entryPerimeter=0;" edge="1" parent="1" source="87M5MBBCxFnqLgaria4e-45" target="87M5MBBCxFnqLgaria4e-37">
          <mxGeometry relative="1" as="geometry" />
        </mxCell>
        <mxCell id="87M5MBBCxFnqLgaria4e-52" style="edgeStyle=orthogonalEdgeStyle;orthogonalLoop=1;jettySize=auto;html=1;exitX=0;exitY=1;exitDx=0;exitDy=0;entryX=0.747;entryY=-0.005;entryDx=0;entryDy=0;entryPerimeter=0;" edge="1" parent="1" source="87M5MBBCxFnqLgaria4e-45" target="87M5MBBCxFnqLgaria4e-34">
          <mxGeometry relative="1" as="geometry" />
        </mxCell>
        <mxCell id="87M5MBBCxFnqLgaria4e-53" style="edgeStyle=orthogonalEdgeStyle;orthogonalLoop=1;jettySize=auto;html=1;exitX=0;exitY=0.5;exitDx=0;exitDy=0;entryX=1.048;entryY=0.186;entryDx=0;entryDy=0;entryPerimeter=0;" edge="1" parent="1" source="87M5MBBCxFnqLgaria4e-45" target="87M5MBBCxFnqLgaria4e-33">
          <mxGeometry relative="1" as="geometry">
            <Array as="points">
              <mxPoint x="145" y="660" />
              <mxPoint x="123" y="660" />
            </Array>
          </mxGeometry>
        </mxCell>
        <mxCell id="87M5MBBCxFnqLgaria4e-54" value="id" style="text;html=1;align=center;verticalAlign=middle;resizable=0;points=[];autosize=1;strokeColor=none;fillColor=none;" vertex="1" parent="1">
          <mxGeometry x="460" y="650" width="30" height="30" as="geometry" />
        </mxCell>
        <mxCell id="87M5MBBCxFnqLgaria4e-55" value="tipo" style="text;html=1;align=center;verticalAlign=middle;resizable=0;points=[];autosize=1;strokeColor=none;fillColor=none;" vertex="1" parent="1">
          <mxGeometry x="580" y="78" width="40" height="30" as="geometry" />
        </mxCell>
        <mxCell id="87M5MBBCxFnqLgaria4e-56" value="" style="shape=waypoint;sketch=0;size=6;pointerEvents=1;points=[];fillColor=default;resizable=0;rotatable=0;perimeter=centerPerimeter;snapToPoint=1;rounded=0;" vertex="1" parent="1">
          <mxGeometry x="590" y="100" width="20" height="20" as="geometry" />
        </mxCell>
        <mxCell id="87M5MBBCxFnqLgaria4e-58" value="" style="shape=waypoint;sketch=0;size=6;pointerEvents=1;points=[];fillColor=default;resizable=0;rotatable=0;perimeter=centerPerimeter;snapToPoint=1;rounded=0;" vertex="1" parent="1">
          <mxGeometry x="630" y="100" width="20" height="20" as="geometry" />
        </mxCell>
        <mxCell id="87M5MBBCxFnqLgaria4e-60" value="numero" style="text;html=1;align=center;verticalAlign=middle;resizable=0;points=[];autosize=1;strokeColor=none;fillColor=none;" vertex="1" parent="1">
          <mxGeometry x="620" y="78" width="60" height="30" as="geometry" />
        </mxCell>
        <mxCell id="87M5MBBCxFnqLgaria4e-62" value="scadenza" style="text;html=1;align=center;verticalAlign=middle;resizable=0;points=[];autosize=1;strokeColor=none;fillColor=none;" vertex="1" parent="1">
          <mxGeometry x="685" y="78" width="70" height="30" as="geometry" />
        </mxCell>
        <mxCell id="87M5MBBCxFnqLgaria4e-63" value="" style="shape=waypoint;sketch=0;size=6;pointerEvents=1;points=[];fillColor=default;resizable=0;rotatable=0;perimeter=centerPerimeter;snapToPoint=1;rounded=0;" vertex="1" parent="1">
          <mxGeometry x="590" y="650" width="20" height="20" as="geometry" />
        </mxCell>
        <mxCell id="87M5MBBCxFnqLgaria4e-65" value="codice fiscale" style="text;html=1;align=center;verticalAlign=middle;resizable=0;points=[];autosize=1;strokeColor=none;fillColor=none;" vertex="1" parent="1">
          <mxGeometry x="550" y="658" width="100" height="30" as="geometry" />
        </mxCell>
        <mxCell id="87M5MBBCxFnqLgaria4e-66" value="nome" style="text;html=1;align=center;verticalAlign=middle;resizable=0;points=[];autosize=1;strokeColor=none;fillColor=none;" vertex="1" parent="1">
          <mxGeometry x="600" y="690" width="50" height="30" as="geometry" />
        </mxCell>
        <mxCell id="87M5MBBCxFnqLgaria4e-67" value="cognome" style="text;html=1;align=center;verticalAlign=middle;resizable=0;points=[];autosize=1;strokeColor=none;fillColor=none;" vertex="1" parent="1">
          <mxGeometry x="605" y="720" width="70" height="30" as="geometry" />
        </mxCell>
        <mxCell id="87M5MBBCxFnqLgaria4e-68" value="nascita" style="text;html=1;align=center;verticalAlign=middle;resizable=0;points=[];autosize=1;strokeColor=none;fillColor=none;" vertex="1" parent="1">
          <mxGeometry x="630" y="748" width="60" height="30" as="geometry" />
        </mxCell>
        <mxCell id="87M5MBBCxFnqLgaria4e-69" value="nazionalità" style="text;html=1;align=center;verticalAlign=middle;resizable=0;points=[];autosize=1;strokeColor=none;fillColor=none;" vertex="1" parent="1">
          <mxGeometry x="710" y="700" width="80" height="30" as="geometry" />
        </mxCell>
        <mxCell id="87M5MBBCxFnqLgaria4e-70" value="telefono" style="text;html=1;align=center;verticalAlign=middle;resizable=0;points=[];autosize=1;strokeColor=none;fillColor=none;" vertex="1" parent="1">
          <mxGeometry x="740" y="640" width="70" height="30" as="geometry" />
        </mxCell>
        <mxCell id="87M5MBBCxFnqLgaria4e-71" value="email" style="text;html=1;align=center;verticalAlign=middle;resizable=0;points=[];autosize=1;strokeColor=none;fillColor=none;" vertex="1" parent="1">
          <mxGeometry x="780" y="590" width="50" height="30" as="geometry" />
        </mxCell>
        <mxCell id="87M5MBBCxFnqLgaria4e-72" style="edgeStyle=orthogonalEdgeStyle;orthogonalLoop=1;jettySize=auto;html=1;exitX=0.25;exitY=1;exitDx=0;exitDy=0;entryX=0.96;entryY=0.11;entryDx=0;entryDy=0;entryPerimeter=0;" edge="1" parent="1" source="87M5MBBCxFnqLgaria4e-7" target="87M5MBBCxFnqLgaria4e-66">
          <mxGeometry relative="1" as="geometry" />
        </mxCell>
        <mxCell id="87M5MBBCxFnqLgaria4e-73" style="edgeStyle=orthogonalEdgeStyle;orthogonalLoop=1;jettySize=auto;html=1;exitX=0.25;exitY=1;exitDx=0;exitDy=0;entryX=0.81;entryY=0.1;entryDx=0;entryDy=0;entryPerimeter=0;" edge="1" parent="1" source="87M5MBBCxFnqLgaria4e-7" target="87M5MBBCxFnqLgaria4e-67">
          <mxGeometry relative="1" as="geometry" />
        </mxCell>
        <mxCell id="87M5MBBCxFnqLgaria4e-74" style="edgeStyle=orthogonalEdgeStyle;orthogonalLoop=1;jettySize=auto;html=1;exitX=0.5;exitY=1;exitDx=0;exitDy=0;entryX=0.852;entryY=0.043;entryDx=0;entryDy=0;entryPerimeter=0;" edge="1" parent="1" source="87M5MBBCxFnqLgaria4e-7" target="87M5MBBCxFnqLgaria4e-68">
          <mxGeometry relative="1" as="geometry" />
        </mxCell>
        <mxCell id="87M5MBBCxFnqLgaria4e-75" style="edgeStyle=orthogonalEdgeStyle;orthogonalLoop=1;jettySize=auto;html=1;exitX=0.75;exitY=1;exitDx=0;exitDy=0;entryX=0.175;entryY=0.043;entryDx=0;entryDy=0;entryPerimeter=0;" edge="1" parent="1" source="87M5MBBCxFnqLgaria4e-7" target="87M5MBBCxFnqLgaria4e-69">
          <mxGeometry relative="1" as="geometry" />
        </mxCell>
        <mxCell id="87M5MBBCxFnqLgaria4e-76" style="edgeStyle=orthogonalEdgeStyle;orthogonalLoop=1;jettySize=auto;html=1;exitX=0.75;exitY=1;exitDx=0;exitDy=0;entryX=0.508;entryY=0.014;entryDx=0;entryDy=0;entryPerimeter=0;" edge="1" parent="1" source="87M5MBBCxFnqLgaria4e-7" target="87M5MBBCxFnqLgaria4e-70">
          <mxGeometry relative="1" as="geometry" />
        </mxCell>
        <mxCell id="87M5MBBCxFnqLgaria4e-77" style="edgeStyle=orthogonalEdgeStyle;orthogonalLoop=1;jettySize=auto;html=1;exitX=1;exitY=1;exitDx=0;exitDy=0;entryX=0.311;entryY=0.129;entryDx=0;entryDy=0;entryPerimeter=0;" edge="1" parent="1" source="87M5MBBCxFnqLgaria4e-7" target="87M5MBBCxFnqLgaria4e-71">
          <mxGeometry relative="1" as="geometry">
            <Array as="points">
              <mxPoint x="740" y="594" />
            </Array>
          </mxGeometry>
        </mxCell>
        <mxCell id="87M5MBBCxFnqLgaria4e-80" value="" style="shape=waypoint;sketch=0;size=6;pointerEvents=1;points=[];fillColor=default;resizable=0;rotatable=0;perimeter=centerPerimeter;snapToPoint=1;rounded=0;" vertex="1" parent="1">
          <mxGeometry x="360" y="310" width="20" height="20" as="geometry" />
        </mxCell>
        <mxCell id="87M5MBBCxFnqLgaria4e-83" value="&lt;div&gt;numero biglietto&lt;/div&gt;" style="text;html=1;align=center;verticalAlign=middle;resizable=0;points=[];autosize=1;strokeColor=none;fillColor=none;" vertex="1" parent="1">
          <mxGeometry x="340" y="290" width="110" height="30" as="geometry" />
        </mxCell>
        <mxCell id="87M5MBBCxFnqLgaria4e-84" value="classe viaggio" style="text;html=1;align=center;verticalAlign=middle;resizable=0;points=[];autosize=1;strokeColor=none;fillColor=none;" vertex="1" parent="1">
          <mxGeometry x="390" y="260" width="100" height="30" as="geometry" />
        </mxCell>
        <mxCell id="87M5MBBCxFnqLgaria4e-85" value="posto" style="text;html=1;align=center;verticalAlign=middle;resizable=0;points=[];autosize=1;strokeColor=none;fillColor=none;" vertex="1" parent="1">
          <mxGeometry x="470" y="340" width="50" height="30" as="geometry" />
        </mxCell>
        <mxCell id="87M5MBBCxFnqLgaria4e-86" style="edgeStyle=orthogonalEdgeStyle;orthogonalLoop=1;jettySize=auto;html=1;exitX=1;exitY=0;exitDx=0;exitDy=0;entryX=0.797;entryY=0.919;entryDx=0;entryDy=0;entryPerimeter=0;" edge="1" parent="1" source="87M5MBBCxFnqLgaria4e-5" target="87M5MBBCxFnqLgaria4e-84">
          <mxGeometry relative="1" as="geometry" />
        </mxCell>
        <mxCell id="87M5MBBCxFnqLgaria4e-87" style="edgeStyle=orthogonalEdgeStyle;orthogonalLoop=1;jettySize=auto;html=1;exitX=1;exitY=0;exitDx=0;exitDy=0;entryX=0;entryY=0.667;entryDx=0;entryDy=0;entryPerimeter=0;" edge="1" parent="1" source="87M5MBBCxFnqLgaria4e-5" target="87M5MBBCxFnqLgaria4e-85">
          <mxGeometry relative="1" as="geometry" />
        </mxCell>
      </root>
    </mxGraphModel>
  </diagram>
</mxfile>
